<?xml version="1.0" standalone="no"?>
<!DOCTYPE svg PUBLIC "-//W3C//DTD SVG 20010904//EN"
 "http://www.w3.org/TR/2001/REC-SVG-20010904/DTD/svg10.dtd">
<svg version="1.0" xmlns="http://www.w3.org/2000/svg"
 width="275.000000pt" height="183.000000pt" viewBox="0 0 275.000000 183.000000"
 preserveAspectRatio="xMidYMid meet">

<g transform="translate(0.000000,183.000000) scale(0.100000,-0.100000)"
fill="#000000" stroke="none">
<path d="M1326 1815 c-26 -27 -56 -123 -56 -183 0 -31 9 -82 20 -112 l19 -55
1 45 c0 25 6 70 13 100 10 44 16 55 32 55 15 0 20 7 20 30 0 52 8 56 108 50
67 -4 93 -2 99 7 6 10 16 4 37 -20 23 -26 28 -43 30 -89 1 -31 4 -61 8 -67 3
-6 -8 2 -25 18 -28 26 -35 28 -91 24 -34 -2 -61 -1 -61 3 0 9 -20 6 -38 -5 -7
-4 -27 -7 -45 -6 -48 3 -57 1 -57 -11 0 -6 7 -8 18 -4 14 5 15 4 5 -6 -23 -23
-14 -29 33 -25 42 3 55 11 68 41 10 22 25 -22 20 -55 -9 -54 -12 -60 -41 -71
l-28 -12 28 -8 c56 -15 72 -49 24 -49 -12 -1 -33 -7 -47 -15 -23 -13 -22 -14
28 -8 58 7 74 -11 20 -23 l-33 -7 40 -14 c57 -19 59 -25 18 -53 -27 -19 -48
-24 -82 -23 l-46 2 25 -21 c98 -78 116 -108 40 -66 -24 13 -54 29 -67 37 -29
16 -38 9 -56 -44 -15 -43 -52 -63 -118 -64 -47 -1 -132 -31 -219 -77 -64 -33
-237 -171 -500 -398 -58 -50 -187 -174 -287 -275 l-183 -184 0 -89 0 -88 610
0 c388 0 610 4 610 10 0 5 15 14 33 20 l32 10 -37 -3 c-40 -3 -49 6 -20 21 51
28 222 25 222 -3 0 -8 -12 -16 -27 -18 -26 -4 -26 -4 5 -6 20 0 32 -6 32 -15
0 -12 41 -15 251 -15 218 -1 250 1 246 14 -4 8 1 18 9 23 10 6 17 27 20 54 2
25 10 77 19 117 15 64 20 72 50 87 19 9 39 22 46 30 6 8 17 14 24 14 7 0 25
12 40 26 25 23 34 25 76 20 44 -6 49 -4 82 28 20 19 34 40 33 48 -7 32 -22 56
-61 95 -31 31 -39 45 -31 54 8 9 6 9 -8 2 -15 -8 -24 -6 -39 7 -20 19 -61 34
-51 19 3 -5 1 -9 -5 -9 -5 0 -13 4 -16 10 -3 5 -15 15 -27 21 -16 9 -19 8 -12
-3 6 -10 4 -11 -7 -2 -8 5 -24 9 -36 8 -12 0 -20 3 -17 7 5 8 -10 13 -30 10
-4 -1 -13 2 -20 7 -6 5 -19 8 -28 7 -9 -2 -24 5 -32 14 -15 16 -13 17 18 17
20 -1 32 -5 29 -11 -3 -5 0 -4 8 3 7 6 23 12 35 12 16 0 22 6 21 18 -1 24 23
82 34 82 5 0 9 4 9 10 0 5 -7 7 -15 4 -11 -4 -13 -2 -9 9 4 11 -5 19 -33 27
-21 7 -42 18 -46 24 -5 7 -7 6 -6 -4 6 -58 -10 -63 -61 -21 -19 15 -51 33 -70
39 -44 15 -152 36 -165 34 -5 -1 -1 5 9 13 11 8 14 15 7 15 -7 0 -9 5 -6 11 4
6 14 8 24 5 12 -5 11 -2 -3 9 -11 8 -25 15 -30 15 -6 0 -5 -4 3 -9 9 -6 10
-11 2 -15 -6 -4 -9 -12 -6 -17 4 -5 1 -9 -5 -9 -7 0 -10 7 -6 15 3 8 -4 24
-17 36 l-22 21 22 -11 c14 -7 24 -8 28 -1 4 7 14 5 28 -5 12 -8 35 -15 52 -15
28 0 26 2 -20 24 -29 13 -53 19 -56 13 -4 -5 -20 -6 -40 -1 l-34 8 30 5 c23 5
31 13 36 38 5 27 2 36 -21 57 -25 21 -28 30 -23 65 6 41 6 41 -28 41 l-34 1
32 14 c17 7 36 22 42 34 12 21 15 131 5 168 -10 36 -43 40 -69 7 -21 -27 -23
-27 -32 -8 -6 10 -14 34 -18 52 -6 28 -4 32 13 32 11 0 23 6 25 13 3 6 6 0 6
-14 1 -15 8 -30 17 -33 22 -9 24 -8 18 9 -5 11 -2 13 10 9 9 -3 22 -1 30 5 17
14 25 -4 27 -57 1 -20 3 -29 6 -19 7 25 22 21 29 -8 7 -28 29 -33 38 -9 10 25
7 84 -4 84 -5 0 -7 7 -4 15 9 22 -5 87 -17 80 -5 -4 -9 -2 -9 4 0 5 5 13 10
16 6 3 10 13 10 21 0 9 -5 12 -12 8 -7 -5 -9 -2 -5 9 7 19 -28 67 -49 67 -8 0
-12 5 -9 11 4 5 -5 21 -20 35 -25 23 -31 24 -165 24 -110 0 -142 -3 -154 -15z
m199 -785 c4 -6 -7 -10 -27 -9 -27 0 -30 2 -13 9 27 12 33 12 40 0z m108 -64
c15 -1 30 -6 35 -11 6 -7 -12 -5 -118 11 -44 7 -63 -4 -102 -59 l-20 -28 21
-16 c12 -8 53 -41 90 -74 41 -35 78 -59 92 -59 22 0 21 2 -11 35 -35 36 -30
44 13 24 21 -10 26 -20 31 -79 5 -50 11 -70 23 -75 14 -5 10 -10 -16 -26 -18
-11 -36 -18 -39 -15 -3 4 0 6 6 6 7 0 12 4 12 10 0 5 -6 9 -12 7 -7 -1 -12 5
-10 14 2 12 -8 19 -31 23 -18 3 -42 12 -52 20 -18 13 -17 15 20 30 45 19 49
14 -77 110 -45 34 -75 63 -71 70 3 6 20 30 37 54 l31 43 60 -6 c33 -3 72 -7
88 -9z m-490 -40 c7 4 -8 -13 -31 -38 -29 -30 -40 -48 -32 -53 6 -4 18 -1 27
7 14 11 15 11 11 -2 -2 -8 -20 -24 -39 -34 l-34 -20 18 21 c17 20 9 42 -11 29
-4 -2 -8 4 -9 14 -2 22 79 98 85 80 2 -5 9 -7 15 -4z m614 -17 c123 -13 154
-26 198 -83 19 -25 25 -41 20 -57 -7 -20 -8 -20 -40 11 -31 30 -102 60 -292
123 -34 11 -47 33 -15 23 9 -2 67 -10 129 -17z m-764 -14 c4 -8 3 -16 -1 -19
-4 -3 -9 4 -9 15 -2 23 3 25 10 4z m-30 -29 c-3 -4 -9 -2 -14 5 -13 22 -11 31
5 17 8 -7 12 -17 9 -22z m-1 -13 c8 3 14 -2 14 -13 0 -10 -3 -17 -7 -14 -4 2
-13 -4 -20 -13 -12 -15 -11 -16 9 -11 13 4 20 2 16 -3 -9 -16 -37 -6 -40 14
-1 10 2 14 8 11 6 -4 8 -1 6 7 -3 8 -10 13 -15 12 -5 -1 -9 7 -9 18 0 19 1 19
13 3 6 -9 18 -14 25 -11z m188 -34 c-14 -12 -34 -27 -44 -35 -11 -7 -17 -16
-14 -19 3 -4 26 8 52 26 25 18 48 30 51 27 5 -5 -98 -79 -120 -86 -5 -2 -3 1
5 7 8 5 11 13 7 17 -3 4 -15 1 -24 -7 -14 -11 -14 -8 2 10 21 25 94 81 104 81
3 -1 -5 -10 -19 -21z m236 4 c29 -19 84 -95 83 -115 0 -9 -2 -8 -6 2 -7 20
-54 70 -66 70 -5 0 -17 8 -26 18 -9 10 -25 24 -36 30 -19 11 -19 11 3 12 12 0
34 -7 48 -17z m-43 -29 c-3 -9 -9 -11 -12 -6 -3 5 -13 12 -21 15 -9 3 -4 6 12
6 21 1 26 -3 21 -15z m354 -30 c-3 -3 -12 -4 -19 -1 -8 3 -5 6 6 6 11 1 17 -2
13 -5z m53 -18 c0 -8 -4 -17 -9 -20 -10 -7 -23 19 -14 28 11 11 23 6 23 -8z
m-301 -50 c-2 -2 -22 5 -44 15 -22 9 -32 18 -22 18 9 1 17 6 17 12 0 7 12 0
27 -15 14 -14 24 -28 22 -30z m-194 -31 c0 -25 -4 -45 -8 -45 -5 0 -6 -4 -3
-8 2 -4 0 -14 -5 -22 -7 -12 -10 -10 -15 8 -5 18 -9 20 -15 10 -6 -9 -9 -7 -9
10 0 12 -5 22 -11 22 -5 0 -8 -4 -5 -9 4 -5 -4 -7 -15 -4 -22 6 -22 6 2 24 13
9 27 15 31 13 3 -2 9 0 13 6 4 6 12 7 18 4 7 -4 9 -4 5 1 -6 6 7 35 16 35 1 0
1 -20 1 -45z m497 -111 c-21 -15 -29 -10 -14 9 18 21 1 29 -25 12 -25 -17 -32
-5 -8 15 8 7 12 17 8 24 -3 6 8 -2 25 -18 29 -27 30 -30 14 -42z m48 -39 c-7
-9 -15 -13 -17 -11 -7 7 7 26 19 26 6 0 6 -6 -2 -15z m-180 -465 c22 -7 21 -8
-12 -9 -21 -1 -38 4 -38 9 0 11 14 11 50 0z"/>
<path d="M1636 632 c-3 -5 1 -9 9 -9 8 0 15 4 15 9 0 4 -4 8 -9 8 -6 0 -12 -4
-15 -8z"/>
<path d="M1094 888 l-29 -33 33 29 c30 28 37 36 29 36 -2 0 -16 -15 -33 -32z"/>
<path d="M1535 1650 c-4 -6 5 -10 19 -10 14 0 26 5 26 10 0 6 -9 10 -19 10
-11 0 -23 -4 -26 -10z"/>
<path d="M1272 1510 c0 -14 2 -19 5 -12 2 6 2 18 0 25 -3 6 -5 1 -5 -13z"/>
<path d="M1695 1450 c-3 -5 -1 -10 4 -10 6 0 11 5 11 10 0 6 -2 10 -4 10 -3 0
-8 -4 -11 -10z"/>
<path d="M1691 1393 c1 -38 1 -38 12 -10 6 15 15 27 20 27 4 0 5 5 2 10 -3 6
-13 10 -21 10 -10 0 -14 -11 -13 -37z"/>
<path d="M1780 1001 c-22 -6 -23 -8 -7 -14 10 -4 28 -7 40 -8 20 -1 20 -2 -3
-9 -24 -8 -24 -8 -2 -9 12 -1 31 -6 41 -13 15 -9 25 -9 43 -1 21 11 20 12 -17
13 -34 2 -36 3 -15 9 23 7 22 8 -13 15 -21 4 -35 11 -32 17 7 10 1 10 -35 0z"/>
<path d="M1900 980 c-9 -6 -10 -10 -3 -10 6 0 15 5 18 10 8 12 4 12 -15 0z"/>
<path d="M1942 967 c10 -8 16 -16 13 -18 -2 -3 5 -5 15 -5 27 0 25 3 -12 21
-24 11 -28 12 -16 2z"/>
<path d="M1995 920 c3 -5 8 -10 11 -10 2 0 4 5 4 10 0 6 -5 10 -11 10 -5 0 -7
-4 -4 -10z"/>
<path d="M2060 735 c0 -9 5 -15 11 -13 6 2 11 8 11 13 0 5 -5 11 -11 13 -6 2
-11 -4 -11 -13z"/>
<path d="M1945 710 c3 -5 8 -10 11 -10 2 0 4 5 4 10 0 6 -5 10 -11 10 -5 0 -7
-4 -4 -10z"/>
</g>
</svg>
